<svg width="41" height="29" viewBox="0 0 41 29" fill="none" xmlns="http://www.w3.org/2000/svg">
<path d="M9.46667 0.292969C4.24675 0.292969 0 4.53972 0 9.75963C0 12.2558 0.963076 14.6111 2.71173 16.3917C4.40452 18.1155 6.6486 19.1135 9.05242 19.2169C9.06378 19.3671 9.07222 19.5741 9.07222 19.8574C9.07222 21.018 8.18961 24.5643 7.63321 26.527L7.06387 28.5352H13.9733L14.4361 27.7895C14.6197 27.4936 18.9333 20.4213 18.9333 9.75963C18.9333 4.53972 14.6866 0.292969 9.46667 0.292969ZM12.1638 25.3796H11.2069C11.6603 23.598 12.2278 21.1164 12.2278 19.8574C12.2278 18.8584 12.1536 18.0557 11.7914 17.3858C11.4689 16.7891 10.7942 16.0784 9.41034 16.0708L9.34147 16.0691C5.93055 16.003 3.15556 13.1726 3.15556 9.75963C3.15556 6.27969 5.98672 3.44852 9.46667 3.44852C12.9466 3.44852 15.7778 6.27969 15.7778 9.75963C15.7778 17.5949 13.1874 23.3943 12.1638 25.3796Z" fill="black" fill-opacity="0.05"/>
<path d="M30.9247 0.292969C25.7048 0.292969 21.458 4.53972 21.458 9.75963C21.458 12.2558 22.4211 14.6111 24.1697 16.3917C25.8625 18.1155 28.1066 19.1135 30.5104 19.2169C30.5218 19.3671 30.5302 19.5741 30.5302 19.8574C30.5302 21.018 29.6476 24.5643 29.0912 26.527L28.5219 28.5352H35.4313L35.8941 27.7895C36.0777 27.4936 40.3913 20.4213 40.3913 9.75963C40.3913 4.53972 36.1446 0.292969 30.9247 0.292969ZM33.6218 25.3796H32.6649C33.1183 23.598 33.6858 21.1164 33.6858 19.8574C33.6858 18.8584 33.6116 18.0557 33.2495 17.3858C32.9269 16.7891 32.2522 16.0784 30.8683 16.0708L30.7995 16.0691C27.3886 16.003 24.6136 13.1726 24.6136 9.75963C24.6136 6.27969 27.4447 3.44852 30.9247 3.44852C34.4046 3.44852 37.2358 6.27969 37.2358 9.75963C37.2358 17.5949 34.6454 23.3943 33.6218 25.3796Z" fill="black" fill-opacity="0.05"/>
</svg>
